<svg id="svg" version="1.1" viewBox="0 0 300 300" width="300" height="300" xmlns="http://www.w3.org/2000/svg"><svg xmlns="http://www.w3.org/2000/svg"><defs><clipPath id="clip-1"><rect x="0" y="0" transform="scale(0.14648,0.14648)" width="2048" height="2048" fill="none"/></clipPath><linearGradient x1="108.80215" y1="184.75049" x2="151.84277" y2="71.88794" gradientUnits="userSpaceOnUse" id="color-1"><stop offset="0" stop-color="#b15837"/><stop offset="1" stop-color="#dc815d"/></linearGradient></defs><g clip-path="url(#clip-1)" fill="none" fill-rule="nonzero" stroke="none" stroke-width="1" stroke-linecap="butt" stroke-linejoin="miter" stroke-miterlimit="10" stroke-dasharray="" stroke-dashoffset="0" font-family="none" font-weight="none" font-size="none" text-anchor="none" style="mix-blend-mode: normal"><path d="M0,0h300v300h-300z" fill="#ffffff"/><path d="M148.25244,70.01323c0.01758,0.0145 0.04102,0.02358 0.05273,0.04336c0.25342,0.43403 0.14502,14.68623 0.1377,16.71138c-1.62158,0.82734 -5.54517,3.47944 -7.19604,4.54937l-8.36587,5.34023c-2.57959,1.67153 -5.29351,3.51328 -7.9333,5.05898c-0.21562,2.91943 -0.04351,7.11372 -0.00469,10.11665c-1.06099,-0.24727 -2.12051,-0.50112 -3.17827,-0.76172c-0.16553,-3.06445 -0.04424,-7.35703 -0.04614,-10.5063l0.00747,-17.83096c-2.18013,1.43042 -4.51523,2.8415 -6.73433,4.22681l0.00205,37.82007c1.16074,0.00894 6.74004,0.49453 6.98906,-0.70078c-0.39038,-1.08472 -3.04263,-3.27935 -4.04326,-4.19355c1.10273,-2.28955 1.78506,-3.74502 3.25005,-5.85381c1.58188,0.55444 3.84961,1.10801 5.51777,1.55859c1.24058,-1.42954 2.3625,-2.51572 3.78633,-3.75c-0.6271,-1.65688 -1.2394,-3.85415 -1.76821,-5.58999c2.18262,-1.26021 3.50405,-2.17192 5.92822,-3.19834c1.2917,1.37227 2.60054,2.72856 3.92578,4.06831c1.52388,-0.62739 3.64878,-1.17275 5.27593,-1.41152c0.41514,-1.86255 0.93135,-3.82397 1.38809,-5.68608c1.08735,-0.0063 2.05532,-0.01465 3.13931,-0.08936c0.04248,3.78867 0.05127,7.57764 0.02637,11.3666c-10.58291,0.21021 -18.32109,6.698 -21.21416,16.72646c-1.66978,-0.07441 -3.41631,-0.05874 -5.09312,-0.0375c-10.83369,0.1374 -21.74678,-0.16802 -32.57212,0.01611l0.0019,3.73711c13.60239,-0.05347 27.20493,-0.02329 40.80703,0.09067c0.37749,-3.7229 1.83311,-7.25493 4.18843,-10.16279c3.75176,-4.64077 8.22612,-6.0917 13.8498,-6.69858l0.04102,3.21621c-1.16602,0.14194 -2.66953,0.27378 -3.76436,0.62168c-16.64414,5.29014 -14.00142,28.65967 3.77021,29.82715l0.00586,3.27393c-5.04038,-0.58301 -8.1876,-1.43262 -12.18882,-4.91895c-3.2562,-2.83857 -5.677,-7.59785 -5.90288,-11.92632c-2.96104,-0.27407 -9.50522,-0.06489 -12.67324,-0.06855l-26.58809,0.00425l-1.5186,0.03501c-0.01157,1.24292 -0.00864,2.48599 0.00864,3.72891l24.5373,-0.02241c4.321,-0.00073 8.78291,0.07808 13.09131,-0.03794c0.47256,3.04424 2.6981,6.9709 4.76118,9.21431c4.94429,5.37744 9.4125,7.14844 16.42778,7.63477c0.06299,3.7998 0.07031,7.59961 0.02344,11.39941c-0.854,-0.104 -2.26392,-0.08936 -3.16685,-0.10547c-0.48984,-1.92187 -0.96182,-3.84961 -1.41577,-5.78027c-1.75679,-0.3252 -3.62827,-0.74561 -5.27476,-1.44434c-1.06787,1.3418 -2.76489,3.01758 -3.97983,4.27441c-2.04639,-1.1001 -3.9104,-2.34082 -5.91914,-3.4834c0.49702,-1.09424 1.3645,-4.12207 1.87222,-5.51953c-1.38853,-1.18799 -2.55527,-2.31152 -3.72539,-3.71777c-1.88994,0.45557 -3.72114,1.01367 -5.58413,1.56592c-1.31104,-1.8208 -2.3436,-3.93604 -3.25283,-5.98242c0.86924,-0.7897 4.11797,-3.32944 3.9312,-4.42544c-0.75791,-0.56763 -5.6959,-0.32842 -6.88638,-0.32329l0.00029,19.17158c2.79507,1.45313 7.72427,4.83691 10.64927,6.66943c7.63433,4.72119 15.21577,9.52734 22.74331,14.41846c0.16553,5.98096 -0.16113,12.15967 0.0835,18.14648c-3.38306,-1.82812 -8.22817,-5.146 -11.60552,-7.2627l-28.70728,-18.1582c-2.68579,-1.67285 -9.61934,-6.34131 -12.23159,-7.53076l-0.01758,-25.40728c-3.01523,-0.1251 -6.61729,-0.08877 -9.63516,-0.03472l0.00791,-17.24985c3.17563,-0.04775 6.48442,-0.00322 9.66929,0.00088l-0.00498,-21.85562c5.12197,-3.17212 10.77363,-6.94512 15.85225,-9.88784c-0.02432,-2.63555 -0.03237,-5.27124 -0.02432,-7.90679c4.24966,-2.45815 8.88281,-5.53799 13.11958,-8.16079c-0.06167,2.39883 0.02959,5.17295 0.0498,7.60034c5.67363,-3.19058 11.579,-7.54351 17.25747,-10.87646c2.01196,-1.18081 3.94497,-2.63042 6.04014,-3.67544z" fill="url(#color-1)"/><path d="M115.03052,165.10986c0.78647,0.25342 9.28008,5.69531 10.63843,6.55078l12.94731,8.15771c1.85317,1.17627 4.95894,3.00586 6.55693,4.30664l-0.00352,5.38184c-2.05078,-1.05762 -5.90537,-3.64307 -7.9437,-4.93799l-12.27847,-7.73877c-3.14634,-2.02002 -6.6939,-4.44287 -9.93677,-6.24902c0.02827,-1.80762 0.01377,-3.65918 0.01978,-5.47119z" fill="#ffffff"/><path d="M103.33447,142.00752c2.80708,-0.03574 5.61475,-0.01553 8.42109,0.06079c-0.02124,5.67729 -0.01377,11.35356 0.02227,17.02983c-0.81284,-0.4292 -1.79268,-1.07227 -2.59131,-1.56738l-0.02256,-12.48032c-1.08047,0.06475 -2.16152,0.03135 -3.2439,0.01421l-0.0249,9.3665l0.0186,4.95703c1.5394,0.74707 4.37021,2.64551 5.84429,3.5874c-0.01787,1.83105 -0.01831,3.66357 -0.00103,5.49463c-2.78818,-1.64648 -5.53682,-3.56982 -8.37744,-5.24414z" fill="#ffffff"/><path d="M111.61567,101.68228c0.26191,0.36401 0.1645,4.08647 0.16377,4.76938c-1.5145,0.73696 -4.29272,2.67979 -5.81045,3.68848c-0.16055,3.56353 -0.07427,8.08828 -0.02329,11.69224c1.01953,-0.07705 2.17427,-0.02271 3.20537,0.00161c0.03794,-3.33062 0.03164,-6.66152 -0.01904,-9.99185c0.93765,-0.61421 1.65337,-1.06582 2.63672,-1.59595l0.03794,5.33452l-0.02344,9.17373c-2.80576,0.0457 -5.61196,0.05391 -8.41787,0.02476l0.00557,-11.2481c-0.00996,-1.96567 -0.11689,-4.6623 -0.01304,-6.57554z" fill="#ffffff"/><path d="M144.93721,80.55996l0.21123,0.1752c0.10649,1.17363 0.03896,3.01948 0.03018,4.24497l-20.07202,12.85269c-0.26646,-0.35786 -0.20684,-3.92124 -0.2124,-4.61689z" fill="#ffffff"/><path d="M151.59961,78.35098c5.03027,4.4332 9.21094,9.74707 12.33398,15.68057c3.05273,5.72739 5.20166,11.77881 7.51465,17.8248c4.51172,11.80078 10.18799,22.09819 21.19629,29.02793c5.10205,3.2376 10.78564,5.452 16.73438,6.52002l-0.2373,0.14795c-1.2334,0.76758 -2.47998,1.25098 -3.84229,2.16943c-4.88232,3.29736 -7.15723,7.07666 -9.4834,12.25928c-0.82324,2.07422 -1.77979,5.13135 -2.51221,7.26563c-2.34375,7.1748 -6.19629,13.52344 -12.7251,17.60596c-0.88623,0.55518 -4.22168,2.83447 -5.03174,1.52783c-0.04541,-1.64941 2.18115,-4.01807 3.13037,-5.39502c4.03125,-5.84473 -0.06738,-9.04102 -3.36914,-13.67578c-1.11621,-1.58203 -2.18115,-3.19922 -3.19482,-4.84863c-7.63916,-12.28857 -11.46387,-23.4769 -14.5415,-37.4417c-0.35156,-3.49307 -3.23437,-14.49331 -5.08008,-17.31826c-0.33545,-0.06958 -0.38232,-0.03882 -0.66064,-0.20083c-0.03955,-0.69346 -0.07471,-1.08735 -0.19629,-1.76938c-0.14795,-5.78789 0.21533,-12.35083 -0.06885,-17.96499c1.27295,2.21455 2.66309,4.54731 3.68848,6.87788c3.93018,8.92793 5.49463,18.33428 7.65527,27.74517c2.7085,11.79565 6.73828,23.17222 13.37842,33.3646c1.26123,1.93652 2.79639,3.88623 4.2041,5.72607l0.08643,-0.76465c-8.66162,-12.7998 -13.00488,-29.87754 -15.98291,-44.79419c-0.22266,-1.31235 -0.60352,-2.86875 -0.86719,-4.20747l-0.04687,-0.13418c-0.46582,-1.38809 -0.75732,-2.97437 -1.11768,-4.40713c-2.04492,-8.12534 -5.44922,-17.98828 -11.00244,-24.38467c0.03223,-2.14526 0.04395,-4.29082 0.03809,-6.43623z" fill="#b75d3c"/><path d="M151.59961,78.35098c5.03027,4.4332 9.21094,9.74707 12.33398,15.68057c3.05273,5.72739 5.20166,11.77881 7.51465,17.8248c4.51172,11.80078 10.18799,22.09819 21.19629,29.02793c5.10205,3.2376 10.78564,5.452 16.73438,6.52002l-0.2373,0.14795c-1.2334,0.76758 -2.47998,1.25098 -3.84229,2.16943c-4.88232,3.29736 -7.15723,7.07666 -9.4834,12.25928c-1.771,-0.47168 -5.354,-3.3999 -6.9082,-4.68311c-8.66162,-7.15576 -14.56787,-17.33555 -18.89795,-27.55986c-1.68018,-3.96899 -2.85498,-8.81602 -4.82959,-12.60923l-0.06592,-0.12305c-0.1875,0.38833 -0.24609,0.58433 -0.51855,0.91494c-0.22266,-1.31235 -0.60352,-2.86875 -0.86719,-4.20747l-0.04687,-0.13418c-0.46582,-1.38809 -0.75732,-2.97437 -1.11768,-4.40713c-2.04492,-8.12534 -5.44922,-17.98828 -11.00244,-24.38467c0.03223,-2.14526 0.04395,-4.29082 0.03809,-6.43623z" fill="#d27753"/><path d="M163.72852,113.71318c0.65332,0.40371 1.04297,2.46694 1.38574,3.29253c-0.1875,0.38833 -0.24609,0.58433 -0.51855,0.91494c-0.22266,-1.31235 -0.60352,-2.86875 -0.86719,-4.20747z" fill="#ab592e"/><path d="M180.57861,162.71484c1.12646,1.40918 2.08154,2.78174 3.11572,4.2583c-0.98145,-0.84961 -2.5166,-2.39941 -3.20215,-3.49365z" fill="#e9c4a7"/><path d="M151.63477,107.73076c0.12158,0.68203 0.15674,1.07593 0.19629,1.76938c0.27832,0.16201 0.3252,0.13125 0.66064,0.20083c1.8457,2.82495 4.72852,13.8252 5.08008,17.31826c-0.41602,0.88682 0.06299,3.48867 0.19775,4.56035c0.82324,6.57993 2.12549,12.93721 4.38574,19.18799c3.04541,8.31592 7.35352,16.11328 12.76904,23.12109c-5.91357,1.96875 -8.93994,4.37549 -13.07373,9.15234c-4.82666,6.03809 -7.13379,10.47949 -10.30811,17.59277c0.15527,-2.70996 0.06738,-5.80518 0.06006,-8.55029l-0.00879,-14.00244l0.04395,-45.45146c-0.03516,-1.80337 -0.04687,-3.60703 -0.03223,-5.41055c-0.12744,-1.02832 -0.03369,-4.70347 -0.03223,-5.96895z" fill="#d27753"/><path d="M152.13867,130.84058c1.04443,6.43198 1.38428,13.18228 2.01416,19.65747c0.85986,8.81396 2.27051,17.97217 5.0127,26.40234c0.50537,1.5542 1.71533,4.95703 2.68506,6.14063c-4.82666,6.03809 -7.13379,10.47949 -10.30811,17.59277c0.15527,-2.70996 0.06738,-5.80518 0.06006,-8.55029l-0.00879,-14.00244l0.04395,-45.45146l0.19043,0.78398c0.31934,-0.19717 -0.09375,-1.84805 0.31055,-2.573z" fill="#b75d3c"/><path d="M151.60547,127.21904c0.43066,1.07725 0.46143,2.45566 0.5332,3.62153c-0.4043,0.72495 0.00879,2.37583 -0.31055,2.573l-0.19043,-0.78398c-0.03516,-1.80337 -0.04687,-3.60703 -0.03223,-5.41055z" fill="#ab592e"/><path d="M151.59082,70.72383c8.38477,5.66323 13.24951,12.23115 18.40283,20.77866c1.5498,2.57051 4.23926,6.82222 5.98828,9.04863c6.64014,8.45259 16.2876,13.14712 27.08496,12.67295c2.83008,-0.12422 5.10498,-0.51401 7.86035,-1.04868l0.76172,-0.14912c-3.08789,4.60986 -4.92334,7.70464 -4.66553,13.32935c-2.36719,0.173 -5.37451,-0.38672 -7.66699,-0.86895c-9.87451,-2.07642 -17.06836,-7.31191 -23.7627,-14.60859c-0.68701,-0.74839 -2.18994,-3.28901 -2.79932,-3.5187c-1.42676,-2.50913 -2.47852,-5.9729 -3.67676,-8.69414c-4.11328,-9.34058 -9.57861,-16.65938 -17.50488,-23.12842c-0.0249,-1.27075 -0.03076,-2.54194 -0.02197,-3.81299z" fill="#d27753"/><path d="M172.79443,106.35938c0.60938,0.22969 2.1123,2.77031 2.79932,3.5187c6.69434,7.29668 13.88818,12.53218 23.7627,14.60859c2.29248,0.48223 5.2998,1.04194 7.66699,0.86895c0.80859,6.02344 3.59619,7.05601 5.91504,12.10708c1.11182,2.42476 0.8833,5.11348 -0.13184,7.55713c-2.18262,-0.49585 -4.35645,-0.89326 -6.50684,-1.51685c-13.09131,-3.7979 -20.93408,-10.61089 -27.44971,-22.37036c6.83203,6.52251 14.43896,11.06177 23.77295,13.13965c0.39111,0.08687 0.65186,0.12993 0.93164,-0.07046c-0.29004,-0.2814 -1.0752,-0.39141 -1.50586,-0.56235c-13.4165,-5.32881 -23.13574,-14.17954 -29.25439,-27.28008z" fill="#b75d3c"/><path d="M75.35669,214.021c4.47788,-0.51123 8.51924,2.71289 9.01523,7.19238c0.49585,4.47949 -2.74233,8.50928 -7.22358,8.98975c-4.45913,0.47754 -8.46489,-2.74072 -8.9584,-7.19824c-0.49351,-4.45752 2.71113,-8.47412 7.16675,-8.98389z" fill="#000000"/><path d="M75.05112,216.87012c2.87021,-0.66357 5.73896,1.11035 6.42817,3.97412c0.68936,2.86377 -1.05879,5.74951 -3.9167,6.46289c-2.89395,0.72363 -5.82261,-1.05029 -6.52046,-3.95068c-0.698,-2.90039 1.10273,-5.81396 4.00898,-6.48633z" fill="#ffffff"/><path d="M192.28418,214.35498c3.22119,0.09229 7.61865,-0.44678 10.59082,0.57568c0.88037,0.30176 1.86035,1.11475 2.2002,2.02148c1.05908,2.83008 -0.77344,3.53906 -1.28906,4.7915c2.28223,1.8208 2.70996,3.05273 1.89551,5.89893c-2.30859,3.09814 -9.68994,2.20166 -13.4165,2.19434c0.07324,-0.93164 0.09521,-2.00244 0.08057,-2.93701c-0.06299,-4.13672 0.14209,-8.42139 -0.06152,-12.54492z" fill="#000000"/><path d="M195.25049,223.24219c2.09912,-0.01465 5.07568,-0.11426 7.08545,0.20947c0.9375,1.30078 1.15283,1.92773 0.38525,3.37207c-1.55713,0.80273 -5.51074,0.5376 -7.47656,0.51416z" fill="#ffffff"/><path d="M195.25635,216.79395c2.49316,-0.02197 9.03076,-0.91113 6.71338,3.43066c-1.43701,0.93896 -4.93066,0.66211 -6.72803,0.64893c-0.01904,-1.34473 0.00586,-2.73193 0.01465,-4.07959z" fill="#ffffff"/><path d="M89.14614,214.37695c4.53003,-0.07617 11.61211,-0.70898 11.00801,6.27393c-0.16465,1.9043 -1.60254,3.07764 -3.03311,4.12793c1.13511,1.69629 2.29072,3.32227 3.42085,5.04346c-0.80259,0.00879 -2.53989,0.08057 -3.23862,-0.07617c-0.98774,-1.40479 -2.24897,-3.09814 -3.0832,-4.56592l-3.96797,0.03516l0.0085,4.604l-2.94492,0.00146c-0.06035,-5.09033 -0.02256,-10.32129 -0.00205,-15.41309z" fill="#000000"/><path d="M90.28286,216.81885c1.20425,0.00293 2.42607,0.03516 3.62651,0.03809c2.89058,0.00586 4.51377,2.80811 2.47822,5.12256c-1.66597,1.08691 -4.11328,0.7793 -6.11558,0.73096c-0.01772,-1.96436 -0.01406,-3.92725 0.01084,-5.8916z" fill="#ffffff"/><path d="M208.94385,214.32129c2.60156,0.3208 5.50635,-0.31787 8.21777,0.26807c3.66797,0.79248 5.13721,3.24902 4.3623,6.84668c-0.36475,1.69482 -1.71533,2.49463 -3.06152,3.31201c1.17188,1.33301 2.67627,3.58301 3.6709,5.07275l-1.85303,0.00732c-0.36035,0.01025 -0.71338,-0.00439 -1.07373,-0.01611c-1.16455,-0.58594 -2.45947,-3.22266 -3.58301,-4.47949l-0.13623,-0.14941l-3.77637,-0.00879l-0.01758,4.64795l-2.78613,0.00439c0.04541,-4.90576 0.17871,-10.66406 0.03662,-15.50537z" fill="#000000"/><path d="M211.70361,216.80273c3.50244,0.07178 5.91504,-0.85254 7.26709,3.00439c-0.26953,0.89941 -0.43506,1.42969 -1.0415,2.14746c-1.78271,1.125 -4.12207,0.83203 -6.2417,0.80713z" fill="#ffffff"/><path d="M145.8208,214.22168c2.521,0.00586 5.03467,1.04443 4.31982,4.12061c-0.37207,1.60547 -1.76953,2.40381 -3.08643,3.1875c0.87744,0.72803 2.34814,2.26611 3.30176,3.12891c0.47314,-1.11768 0.64307,-1.69189 0.95508,-2.87256c0.78076,0.37939 1.5542,0.67383 2.35986,0.99463c-0.50244,1.30371 -0.96826,2.36133 -1.5542,3.62842c0.52588,0.34863 1.604,1.27441 2.1416,1.71094c-0.62402,0.60938 -1.13672,1.41504 -1.79004,1.91016l-1.90576,-1.68164c-2.90918,1.80029 -7.83911,2.85791 -10.16177,-0.42334c-0.58022,-0.82031 -0.80156,-1.84277 -0.61348,-2.83008c0.35801,-1.87939 1.85991,-2.9165 3.31494,-3.91992c-2.88677,-3.08643 -1.59668,-6.67676 2.7186,-6.95361z" fill="#000000"/><path d="M144.55415,222.76611c0.79556,0.26514 3.31304,3.00439 4.35894,3.83203c-0.87598,0.49951 -1.37109,0.71631 -2.3042,1.10449c-1.20059,0.15674 -2.68887,0.14209 -3.54272,-0.87012c-0.3498,-0.40869 -0.5146,-0.94336 -0.45483,-1.47803c0.13389,-1.26416 1.01689,-1.87061 1.94282,-2.58838z" fill="#ffffff"/><path d="M145.41152,216.23584c0.23481,-0.01172 1.02583,-0.03516 1.23545,0.01025c0.38525,0.0835 0.7207,0.31934 0.92725,0.65479c0.77783,1.2583 -0.6709,2.39795 -1.59038,2.94727c-0.26616,0.11426 -0.20127,0.07764 -0.50669,0.09961c-1.52036,-0.90381 -1.84336,-2.84619 -0.06563,-3.71191z" fill="#ffffff"/><path d="M180.45703,214.32422l2.95166,0.01025c0.5083,0.88037 1.46777,3.22559 1.94678,4.26123c1.75635,3.79395 3.31934,7.51172 5.23682,11.23682l-3.18018,-0.00732c-0.56396,-1.1543 -1.08545,-2.33057 -1.56152,-3.52588l-2.08594,0.01758l-5.61182,-0.00439c-0.6123,1.27295 -0.9668,2.18848 -1.45459,3.52148l-3.11279,0.00146c2.24121,-5.00977 4.80615,-10.46191 6.87158,-15.51123z" fill="#000000"/><path d="M181.85449,217.62305c0.73242,0.69434 2.34521,5.00977 2.85059,6.20215l-2.50195,-0.00293l-3.00439,0.0249z" fill="#ffffff"/><path d="M120.87847,214.38135c3.47197,-0.01025 7.06875,-0.06885 10.53032,0.03809l-0.0019,2.39795l-8.35503,-0.00586l0.00264,3.96826l7.46323,-0.00439c-0.06431,0.86426 -0.05142,1.5835 -0.04102,2.44775c-1.06802,0.02197 -6.98511,-0.14355 -7.42998,0.20361c-0.00659,1.29492 0.0126,2.60889 0.02007,3.90674l8.77485,0.00879l-0.01245,2.48438l-11.723,-0.00146c-0.03794,-1.92627 -0.15454,-14.81104 0.15967,-15.39258z" fill="#000000"/><path d="M110.01401,214.22021c2.98975,-0.20508 4.54834,0.59912 6.825,2.32617l-1.88013,1.9834c-3.12524,-3.03076 -8.66631,-2.10498 -9.70137,2.28955c-0.32549,1.40479 -0.07793,2.88135 0.68789,4.10303c0.73271,1.19971 1.92349,2.04932 3.29678,2.34961c1.20527,0.26221 3.24258,0.17725 4.29463,-0.53027c0.45498,-0.80859 0.29136,-3.77344 0.14546,-4.75195c0.97954,-0.01172 1.95923,-0.01758 2.93892,-0.01465c0.04248,2.0376 0.09624,3.96533 0.00249,6.00146c-2.09692,1.771 -4.5123,2.14453 -7.1666,1.98193c-6.50786,-0.40137 -9.37222,-8.18848 -5.37729,-12.97266c1.62261,-1.94385 3.51372,-2.58984 5.93423,-2.76562z" fill="#000000"/><path d="M147.58008,121.6333l0.58447,0.0126c0.47607,0.58535 0.27832,2.25923 0.31348,3.24653c-4.25713,0.11572 -7.74287,3.22515 -8.2478,7.45122c-0.28931,2.34888 0.3895,4.71431 1.88027,6.55239c1.81113,2.22451 3.58813,2.72871 6.28403,3.05039c0.02197,1.09321 0.00146,2.2292 -0.00293,3.32622l-1.89551,-0.28433c-4.97153,-0.6728 -8.80386,-4.95103 -9.47578,-9.84404c-0.40928,-3.17622 0.43755,-6.38672 2.36001,-8.948c1.9519,-2.56479 5.02764,-4.15547 8.19976,-4.56299z" fill="#b75d3c"/><path d="M238.14111,214.21289c3.02051,-0.13184 4.53369,0.62842 6.70752,2.53857l-1.95703,1.87207c-1.07227,-1.04297 -1.92627,-1.69336 -3.49805,-1.87793c-1.41797,-0.17139 -2.84473,0.24902 -3.94336,1.16309c-1.10596,0.91992 -1.80615,2.23975 -1.94531,3.67236c-0.50537,5.21777 5.52393,7.47949 8.68652,4.62891c0.50537,-0.49951 0.31641,-0.47168 0.85693,-0.48633c0.71484,0.33838 1.28906,1.10889 1.83984,1.72119c-3.00586,2.92822 -7.99951,3.57275 -11.38916,0.94629c-1.63037,-1.27734 -2.67041,-3.1626 -2.88721,-5.22217c-0.56396,-4.95557 2.67041,-8.47119 7.5293,-8.95605z" fill="#000000"/><path d="M55.42339,214.37109c2.98623,0.1582 7.94033,-0.02051 11.08198,-0.0249l-0.00542,2.46533l-8.32764,-0.00586c-0.0126,1.54102 -0.01597,3.08203 -0.01011,4.62451l7.46821,0.01611l0.00996,2.43896l-7.47451,0.00439l-0.00894,5.93115l-2.82729,0.01025c0.12466,-4.68311 -0.24507,-11.01855 0.09375,-15.45996z" fill="#000000"/><path d="M162.60938,214.36084c3.1626,0.15967 7.85742,0.00586 11.1416,-0.01465l0.00146,2.45654l-8.34229,0.00146l-0.02197,4.64941c2.50195,-0.02051 5.00537,-0.01465 7.50732,0.01758c0.01758,0.76904 -0.01904,1.6333 -0.03369,2.40967c-2.48877,0.02783 -4.97754,0.02344 -7.46631,-0.01465l-0.00586,5.94434l-2.83008,0.01904c0.08057,-5.13428 0.01465,-10.32275 0.0498,-15.46875z" fill="#000000"/><path d="M175.57764,176.9751c0.79102,-0.05859 1.16162,-0.00879 1.76953,0.51855c1.22607,2.35107 -2.62939,5.8418 -3.71631,7.8457c-0.71045,1.30957 -0.71631,1.24658 -1.09717,2.70557l-0.55225,-0.92725c-1.45605,-2.22363 -2.43604,-3.96533 -3.68408,-6.29736c2.54297,-1.9585 4.10449,-3.15674 7.28027,-3.84521z" fill="#b75d3c"/><path d="M225.62842,214.37109l1.99219,-0.00293c-0.07471,3.60498 0.01025,7.26416 -0.00439,10.87061c-0.00439,0.91992 0.0791,3.85107 -0.0498,4.49268l-0.33691,0.10107l-2.38477,-0.00879c0.00146,-1.72119 -0.15088,-14.80811 0.15674,-15.37646z" fill="#000000"/></g></svg></svg>