<svg id="svg-mark" version="1.1" viewBox="50 65 200 135" xmlns="http://www.w3.org/2000/svg">
  <defs>
    <clipPath id="clip-mark">
      <rect x="0" y="0" transform="scale(0.14648,0.14648)" width="2048" height="2048" fill="none"/>
    </clipPath>
    <linearGradient x1="108.80215" y1="184.75049" x2="151.84277" y2="71.88794" gradientUnits="userSpaceOnUse" id="color-mark-1">
      <stop offset="0" stop-color="#b15837"/>
      <stop offset="1" stop-color="#dc815d"/>
    </linearGradient>
  </defs>
  <g clip-path="url(#clip-mark)" fill="none" fill-rule="nonzero" stroke="none" stroke-width="1" stroke-linecap="butt" stroke-linejoin="miter" stroke-miterlimit="10" font-family="none" font-weight="none" font-size="none" text-anchor="none" style="mix-blend-mode: normal">
    <path d="M148.25244,70.01323c0.01758,0.0145 0.04102,0.02358 0.05273,0.04336c0.25342,0.43403 0.14502,14.68623 0.1377,16.71138c-1.62158,0.82734 -5.54517,3.47944 -7.19604,4.54937l-8.36587,5.34023c-2.57959,1.67153 -5.29351,3.51328 -7.9333,5.05898c-0.21562,2.91943 -0.04351,7.11372 -0.00469,10.11665c-1.06099,-0.24727 -2.12051,-0.50112 -3.17827,-0.76172c-0.16553,-3.06445 -0.04424,-7.35703 -0.04614,-10.5063l0.00747,-17.83096c-2.18013,1.43042 -4.51523,2.8415 -6.73433,4.22681l0.00205,37.82007c1.16074,0.00894 6.74004,0.49453 6.98906,-0.70078c-0.39038,-1.08472 -3.04263,-3.27935 -4.04326,-4.19355c1.10273,-2.28955 1.78506,-3.74502 3.25005,-5.85381c1.58188,0.55444 3.84961,1.10801 5.51777,1.55859c1.24058,-1.42954 2.3625,-2.51572 3.78633,-3.75c-0.6271,-1.65688 -1.2394,-3.85415 -1.76821,-5.58999c2.18262,-1.26021 3.50405,-2.17192 5.92822,-3.19834c1.2917,1.37227 2.60054,2.72856 3.92578,4.06831c1.52388,-0.62739 3.64878,-1.17275 5.27593,-1.41152c0.41514,-1.86255 0.93135,-3.82397 1.38809,-5.68608c1.08735,-0.0063 2.05532,-0.01465 3.13931,-0.08936c0.04248,3.78867 0.05127,7.57764 0.02637,11.3666c-10.58291,0.21021 -18.32109,6.698 -21.21416,16.72646c-1.66978,-0.07441 -3.41631,-0.05874 -5.09312,-0.0375c-10.83369,0.1374 -21.74678,-0.16802 -32.57212,0.01611l0.0019,3.73711c13.60239,-0.05347 27.20493,-0.02329 40.80703,0.09067c0.37749,-3.7229 1.83311,-7.25493 4.18843,-10.16279c3.75176,-4.64077 8.22612,-6.0917 13.8498,-6.69858l0.04102,3.21621c-1.16602,0.14194 -2.66953,0.27378 -3.76436,0.62168c-16.64414,5.29014 -14.00142,28.65967 3.77021,29.82715l0.00586,3.27393c-5.04038,-0.58301 -8.1876,-1.43262 -12.18882,-4.91895c-3.2562,-2.83857 -5.677,-7.59785 -5.90288,-11.92632c-2.96104,-0.27407 -9.50522,-0.06489 -12.67324,-0.06855l-26.58809,0.00425l-1.5186,0.03501c-0.01157,1.24292 -0.00864,2.48599 0.00864,3.72891l24.5373,-0.02241c4.321,-0.00073 8.78291,0.07808 13.09131,-0.03794c0.47256,3.04424 2.6981,6.9709 4.76118,9.21431c4.94429,5.37744 9.4125,7.14844 16.42778,7.63477c0.06299,3.7998 0.07031,7.59961 0.02344,11.39941c-0.854,-0.104 -2.26392,-0.08936 -3.16685,-0.10547c-0.48984,-1.92187 -0.96182,-3.84961 -1.41577,-5.78027c-1.75679,-0.3252 -3.62827,-0.74561 -5.27476,-1.44434c-1.06787,1.3418 -2.76489,3.01758 -3.97983,4.27441c-2.04639,-1.1001 -3.9104,-2.34082 -5.91914,-3.4834c0.49702,-1.09424 1.3645,-4.12207 1.87222,-5.51953c-1.38853,-1.18799 -2.55527,-2.31152 -3.72539,-3.71777c-1.88994,0.45557 -3.72114,1.01367 -5.58413,1.56592c-1.31104,-1.8208 -2.3436,-3.93604 -3.25283,-5.98242c0.86924,-0.7897 4.11797,-3.32944 3.9312,-4.42544c-0.75791,-0.56763 -5.6959,-0.32842 -6.88638,-0.32329l0.00029,19.17158c2.79507,1.45313 7.72427,4.83691 10.64927,6.66943c7.63433,4.72119 15.21577,9.52734 22.74331,14.41846c0.16553,5.98096 -0.16113,12.15967 0.0835,18.14648c-3.38306,-1.82812 -8.22817,-5.146 -11.60552,-7.2627l-28.70728,-18.1582c-2.68579,-1.67285 -9.61934,-6.34131 -12.23159,-7.53076l-0.01758,-25.40728c-3.01523,-0.1251 -6.61729,-0.08877 -9.63516,-0.03472l0.00791,-17.24985c3.17563,-0.04775 6.48442,-0.00322 9.66929,0.00088l-0.00498,-21.85562c5.12197,-3.17212 10.77363,-6.94512 15.85225,-9.88784c-0.02432,-2.63555 -0.03237,-5.27124 -0.02432,-7.90679c4.24966,-2.45815 8.88281,-5.53799 13.11958,-8.16079c-0.06167,2.39883 0.02959,5.17295 0.0498,7.60034c5.67363,-3.19058 11.579,-7.54351 17.25747,-10.87646c2.01196,-1.18081 3.94497,-2.63042 6.04014,-3.67544z" fill="url(#color-mark-1)"/>
    <path d="M115.03052,165.10986c0.78647,0.25342 9.28008,5.69531 10.63843,6.55078l12.94731,8.15771c1.85317,1.17627 4.95894,3.00586 6.55693,4.30664l-0.00352,5.38184c-2.05078,-1.05762 -5.90537,-3.64307 -7.9437,-4.93799l-12.27847,-7.73877c-3.14634,-2.02002 -6.6939,-4.44287 -9.93677,-6.24902c0.02827,-1.80762 0.01377,-3.65918 0.01978,-5.47119z" fill="#ffffff"/>
    <path d="M103.33447,142.00752c2.80708,-0.03574 5.61475,-0.01553 8.42109,0.06079c-0.02124,5.67729 -0.01377,11.35356 0.02227,17.02983c-0.81284,-0.4292 -1.79268,-1.07227 -2.59131,-1.56738l-0.02256,-12.48032c-1.08047,0.06475 -2.16152,0.03135 -3.2439,0.01421l-0.0249,9.3665l0.0186,4.95703c1.5394,0.74707 4.37021,2.64551 5.84429,3.5874c-0.01787,1.83105 -0.01831,3.66357 -0.00103,5.49463c-2.78818,-1.64648 -5.53682,-3.56982 -8.37744,-5.24414z" fill="#ffffff"/>
    <path d="M111.61567,101.68228c0.26191,0.36401 0.1645,4.08647 0.16377,4.76938c-1.5145,0.73696 -4.29272,2.67979 -5.81045,3.68848c-0.16055,3.56353 -0.07427,8.08828 -0.02329,11.69224c1.01953,-0.07705 2.17427,-0.02271 3.20537,0.00161c0.03794,-3.33062 0.03164,-6.66152 -0.01904,-9.99185c0.93765,-0.61421 1.65337,-1.06582 2.63672,-1.59595l0.03794,5.33452l-0.02344,9.17373c-2.80576,0.0457 -5.61196,0.05391 -8.41787,0.02476l0.00557,-11.2481c-0.00996,-1.96567 -0.11689,-4.6623 -0.01304,-6.57554z" fill="#ffffff"/>
    <path d="M144.93721,80.55996l0.21123,0.1752c0.10649,1.17363 0.03896,3.01948 0.03018,4.24497l-20.07202,12.85269c-0.26646,-0.35786 -0.20684,-3.92124 -0.2124,-4.61689z" fill="#ffffff"/>
    <path d="M151.59961,78.35098c5.03027,4.4332 9.21094,9.74707 12.33398,15.68057c3.05273,5.72739 5.20166,11.77881 7.51465,17.8248c4.51172,11.80078 10.18799,22.09819 21.19629,29.02793c5.10205,3.2376 10.78564,5.452 16.73438,6.52002l-0.2373,0.14795c-1.2334,0.76758 -2.47998,1.25098 -3.84229,2.16943c-4.88232,3.29736 -7.15723,7.07666 -9.4834,12.25928c-0.82324,2.07422 -1.77979,5.13135 -2.51221,7.26563c-2.34375,7.1748 -6.19629,13.52344 -12.7251,17.60596c-0.88623,0.55518 -4.22168,2.83447 -5.03174,1.52783c-0.04541,-1.64941 2.18115,-4.01807 3.13037,-5.39502c4.03125,-5.84473 -0.06738,-9.04102 -3.36914,-13.67578c-1.11621,-1.58203 -2.18115,-3.19922 -3.19482,-4.84863c-7.63916,-12.28857 -11.46387,-23.4769 -14.5415,-37.4417c-0.35156,-3.49307 -3.23437,-14.49331 -5.08008,-17.31826c-0.33545,-0.06958 -0.38232,-0.03882 -0.66064,-0.20083c-0.03955,-0.69346 -0.07471,-1.08735 -0.19629,-1.76938c-0.14795,-5.78789 0.21533,-12.35083 -0.06885,-17.96499c1.27295,2.21455 2.66309,4.54731 3.68848,6.87788c3.93018,8.92793 5.49463,18.33428 7.65527,27.74517c2.7085,11.79565 6.73828,23.17222 13.37842,33.3646c1.26123,1.93652 2.79639,3.88623 4.2041,5.72607l0.08643,-0.76465c-8.66162,-12.7998 -13.00488,-29.87754 -15.98291,-44.79419c-0.22266,-1.31235 -0.60352,-2.86875 -0.86719,-4.20747l-0.04687,-0.13418c-0.46582,-1.38809 -0.75732,-2.97437 -1.11768,-4.40713c-2.04492,-8.12534 -5.44922,-17.98828 -11.00244,-24.38467c0.03223,-2.14526 0.04395,-4.29082 0.03809,-6.43623z" fill="#b75d3c"/>
    <path d="M151.59961,78.35098c5.03027,4.4332 9.21094,9.74707 12.33398,15.68057c3.05273,5.72739 5.20166,11.77881 7.51465,17.8248c4.51172,11.80078 10.18799,22.09819 21.19629,29.02793c5.10205,3.2376 10.78564,5.452 16.73438,6.52002l-0.2373,0.14795c-1.2334,0.76758 -2.47998,1.25098 -3.84229,2.16943c-4.88232,3.29736 -7.15723,7.07666 -9.4834,12.25928c-1.771,-0.47168 -5.354,-3.3999 -6.9082,-4.68311c-8.66162,-7.15576 -14.56787,-17.33555 -18.89795,-27.55986c-1.68018,-3.96899 -2.85498,-8.81602 -4.82959,-12.60923l-0.06592,-0.12305c-0.1875,0.38833 -0.24609,0.58433 -0.51855,0.91494c-0.22266,-1.31235 -0.60352,-2.86875 -0.86719,-4.20747l-0.04687,-0.13418c-0.46582,-1.38809 -0.75732,-2.97437 -1.11768,-4.40713c-2.04492,-8.12534 -5.44922,-17.98828 -11.00244,-24.38467c0.03223,-2.14526 0.04395,-4.29082 0.03809,-6.43623z" fill="#d27753"/>
    <path d="M163.72852,113.71318c0.65332,0.40371 1.04297,2.46694 1.38574,3.29253c-0.1875,0.38833 -0.24609,0.58433 -0.51855,0.91494c-0.22266,-1.31235 -0.60352,-2.86875 -0.86719,-4.20747z" fill="#ab592e"/>
    <path d="M180.57861,162.71484c1.12646,1.40918 2.08154,2.78174 3.11572,4.2583c-0.98145,-0.84961 -2.5166,-2.39941 -3.20215,-3.49365z" fill="#e9c4a7"/>
    <path d="M151.63477,107.73076c0.12158,0.68203 0.15674,1.07593 0.19629,1.76938c0.27832,0.16201 0.3252,0.13125 0.66064,0.20083c1.8457,2.82495 4.72852,13.8252 5.08008,17.31826c-0.41602,0.88682 0.06299,3.48867 0.19775,4.56035c0.82324,6.57993 2.12549,12.93721 4.38574,19.18799c3.04541,8.31592 7.35352,16.11328 12.76904,23.12109c-5.91357,1.96875 -8.93994,4.37549 -13.07373,9.15234c-4.82666,6.03809 -7.13379,10.47949 -10.30811,17.59277c0.15527,-2.70996 0.06738,-5.80518 0.06006,-8.55029l-0.00879,-14.00244l0.04395,-45.45146c-0.03516,-1.80337 -0.04687,-3.60703 -0.03223,-5.41055c-0.12744,-1.02832 -0.03369,-4.70347 -0.03223,-5.96895z" fill="#d27753"/>
    <path d="M152.13867,130.84058c1.04443,6.43198 1.38428,13.18228 2.01416,19.65747c0.85986,8.81396 2.27051,17.97217 5.0127,26.40234c0.50537,1.5542 1.71533,4.95703 2.68506,6.14063c-4.82666,6.03809 -7.13379,10.47949 -10.30811,17.59277c0.15527,-2.70996 0.06738,-5.80518 0.06006,-8.55029l-0.00879,-14.00244l0.04395,-45.45146l0.19043,0.78398c0.31934,-0.19717 -0.09375,-1.84805 0.31055,-2.573z" fill="#b75d3c"/>
    <path d="M151.60547,127.21904c0.43066,1.07725 0.46143,2.45566 0.5332,3.62153c-0.4043,0.72495 0.00879,2.37583 -0.31055,2.573l-0.19043,-0.78398c-0.03516,-1.80337 -0.04687,-3.60703 -0.03223,-5.41055z" fill="#ab592e"/>
    <path d="M151.59082,70.72383c8.38477,5.66323 13.24951,12.23115 18.40283,20.77866c1.5498,2.57051 4.23926,6.82222 5.98828,9.04863c6.64014,8.45259 16.2876,13.14712 27.08496,12.67295c2.83008,-0.12422 5.10498,-0.51401 7.86035,-1.04868l0.76172,-0.14912c-3.08789,4.60986 -4.92334,7.70464 -4.66553,13.32935c-2.36719,0.173 -5.37451,-0.38672 -7.66699,-0.86895c-9.87451,-2.07642 -17.06836,-7.31191 -23.7627,-14.60859c-0.68701,-0.74839 -2.18994,-3.28901 -2.79932,-3.5187c-1.42676,-2.50913 -2.47852,-5.9729 -3.67676,-8.69414c-4.11328,-9.34058 -9.57861,-16.65938 -17.50488,-23.12842c-0.0249,-1.27075 -0.03076,-2.54194 -0.02197,-3.81299z" fill="#d27753"/>
    <path d="M172.79443,106.35938c0.60938,0.22969 2.1123,2.77031 2.79932,3.5187c6.69434,7.29668 13.88818,12.53218 23.7627,14.60859c2.29248,0.48223 5.2998,1.04194 7.66699,0.86895c0.80859,6.02344 3.59619,7.05601 5.91504,12.10708c1.11182,2.42476 0.8833,5.11348 -0.13184,7.55713c-2.18262,-0.49585 -4.35645,-0.89326 -6.50684,-1.51685c-13.09131,-3.7979 -20.93408,-10.61089 -27.44971,-22.37036c6.83203,6.52251 14.43896,11.06177 23.77295,13.13965c0.39111,0.08687 0.65186,0.12993 0.93164,-0.07046c-0.29004,-0.2814 -1.0752,-0.39141 -1.50586,-0.56235c-13.4165,-5.32881 -23.13574,-14.17954 -29.25439,-27.28008z" fill="#b75d3c"/>
    <path d="M147.58008,121.6333l0.58447,0.0126c0.47607,0.58535 0.27832,2.25923 0.31348,3.24653c-4.25713,0.11572 -7.74287,3.22515 -8.2478,7.45122c-0.28931,2.34888 0.3895,4.71431 1.88027,6.55239c1.81113,2.22451 3.58813,2.72871 6.28403,3.05039c0.02197,1.09321 0.00146,2.2292 -0.00293,3.32622l-1.89551,-0.28433c-4.97153,-0.6728 -8.80386,-4.95103 -9.47578,-9.84404c-0.40928,-3.17622 0.43755,-6.38672 2.36001,-8.948c1.9519,-2.56479 5.02764,-4.15547 8.19976,-4.56299z" fill="#b75d3c"/>
    <path d="M175.57764,176.9751c0.79102,-0.05859 1.16162,-0.00879 1.76953,0.51855c1.22607,2.35107 -2.62939,5.8418 -3.71631,7.8457c-0.71045,1.30957 -0.71631,1.24658 -1.09717,2.70557l-0.55225,-0.92725c-1.45605,-2.22363 -2.43604,-3.96533 -3.68408,-6.29736c2.54297,-1.9585 4.10449,-3.15674 7.28027,-3.84521z" fill="#b75d3c"/>
  </g>
</svg>
